<?xml version="1.0" encoding="utf-8"?>
<!-- Generator: Adobe Illustrator 16.0.0, SVG Export Plug-In . SVG Version: 6.00 Build 0)  -->
<!DOCTYPE svg PUBLIC "-//W3C//DTD SVG 1.1//EN" "http://www.w3.org/Graphics/SVG/1.1/DTD/svg11.dtd">
<svg version="1.1" id="Layer_1" xmlns="http://www.w3.org/2000/svg" xmlns:xlink="http://www.w3.org/1999/xlink" x="0px" y="0px"
	 width="866px" height="270px" viewBox="0 0 866 270" enable-background="new 0 0 866 270" xml:space="preserve">
<g>
	<path fill="#333333" d="M243.177,101.222c0-12.919-0.258-23.512-1.033-33.848h20.153l1.292,20.67h0.517
		c6.201-11.885,20.67-23.512,41.34-23.512c17.312,0,44.183,10.335,44.183,53.226v74.671h-22.737v-72.087
		c0-20.154-7.493-36.948-28.938-36.948c-14.986,0-26.613,10.593-30.489,23.254c-1.034,2.842-1.55,6.718-1.55,10.594v75.188h-22.737
		V101.222z"/>
	<path fill="#333333" d="M499.741,128.868c0,46.249-32.038,66.402-62.269,66.402c-33.847,0-59.943-24.804-59.943-64.336
		c0-41.856,27.388-66.402,62.01-66.402C475.454,64.532,499.741,90.628,499.741,128.868z M400.525,130.16
		c0,27.388,15.761,48.058,37.981,48.058c21.704,0,37.981-20.411,37.981-48.574c0-21.188-10.593-48.059-37.464-48.059
		C412.152,81.585,400.525,106.389,400.525,130.16z"/>
	<path fill="#333333" d="M555.807,31.46v35.914h32.556v17.312h-32.556v67.437c0,15.503,4.393,24.287,17.054,24.287
		c5.942,0,10.335-0.775,13.177-1.55l1.033,17.053c-4.392,1.809-11.368,3.101-20.153,3.101c-10.593,0-19.119-3.359-24.546-9.561
		c-6.459-6.718-8.784-17.827-8.784-32.555V84.686h-19.379V67.374h19.379V37.402L555.807,31.46z"/>
	<path fill="#333333" d="M626.6,134.035c0.517,30.747,20.153,43.407,42.891,43.407c16.277,0,26.096-2.842,34.622-6.459l3.876,16.277
		c-8.01,3.618-21.704,7.752-41.599,7.752c-38.499,0-61.494-25.321-61.494-63.044c0-37.723,22.221-67.437,58.651-67.437
		c40.824,0,51.676,35.914,51.676,58.91c0,4.65-0.517,8.268-0.775,10.593H626.6z M693.261,117.758
		c0.258-14.469-5.943-36.948-31.522-36.948c-22.995,0-33.072,21.187-34.881,36.948H693.261z"/>
	<path fill="#333333" d="M740.281,169.175c6.718,4.393,18.604,9.043,29.972,9.043c16.536,0,24.288-8.268,24.288-18.603
		c0-10.853-6.46-16.795-23.254-22.996c-22.479-8.01-33.072-20.412-33.072-35.397c0-20.153,16.277-36.689,43.148-36.689
		c12.661,0,23.771,3.617,30.747,7.751l-5.685,16.536c-4.909-3.101-13.952-7.234-25.579-7.234c-13.436,0-20.929,7.751-20.929,17.053
		c0,10.335,7.493,14.986,23.771,21.188c21.704,8.268,32.814,19.119,32.814,37.723c0,21.962-17.053,37.465-46.767,37.465
		c-13.693,0-26.354-3.359-35.139-8.526L740.281,169.175z"/>
</g>
<g>
	<defs>
		<rect id="SVGID_1_" x="-50" y="-87" width="1000" height="409"/>
	</defs>
	<clipPath id="SVGID_2_">
		<use xlink:href="#SVGID_1_"  overflow="visible"/>
	</clipPath>
	<path clip-path="url(#SVGID_2_)" fill="#00C9FF" d="M130.109,36.306l0.006,43.787L63.988,54.107c-0.257-0.108-0.5-0.202-0.742-0.31
		c-15.575-6.615-6.927-15.441-6.927-15.441l53.506-17.281C120.033,17.784,130.416,25.579,130.109,36.306"/>
	<path clip-path="url(#SVGID_2_)" fill="#66E2FF" d="M187.542,114.57l0.007,114.845c-0.306,10.697-14.382,17.889-24.372,14.063
		L55.83,202.376c0,0-9.84-13.098,3.623-22.103l56.993-19.45c6.143-2.106,13.484-6.509,13.67-12.991v-67.74l47.679,19.621
		C183.837,102.139,187.728,108.073,187.542,114.57"/>
	<path clip-path="url(#SVGID_2_)" fill="#0092FF" d="M130.115,80.093v67.739c-0.186,6.481-7.526,10.884-13.669,12.991
		l-56.994,19.449c-13.463,9.007-3.623,22.104-3.623,22.104l-6.931-2.655c-6.003-2.31-9.97-8.073-9.974-14.488l-0.016-19.65
		l-0.011-6.69l-0.084-86.94l-0.002-4.97l-0.013-11.661c0.005-6.747,4.352-12.72,10.769-14.79l6.737-2.177l0.015,0.001
		c0,0-8.648,8.826,6.926,15.441c0.243,0.108,0.486,0.202,0.743,0.31L130.115,80.093z"/>
</g>
</svg>
